<?xml version="1.0" encoding="UTF-8"?>
<svg id="Layer_1" data-name="Layer 1" xmlns="http://www.w3.org/2000/svg" viewBox="0 0 40 40">
  <defs>
    <style>
      .cls-1 {
        fill: #c7231a;
        fill-rule: evenodd;
      }
    </style>
  </defs>
  <path class="cls-1" d="M13.72,0C11.46,0,9.3.9,7.7,2.49L0,10.19v3.52C0,16.21,1.07,18.45,2.77,20,1,21.61,0,23.89,0,26.29v3.52l7.7,7.7c3.32,3.32,8.71,3.32,12.03,0,.09-.09.18-.19.27-.28,3.17,3.47,8.55,3.72,12.02.55.1-.09.19-.18.28-.27l7.7-7.7v-3.52c0-2.49-1.07-4.73-2.77-6.29,1.77-1.61,2.78-3.89,2.77-6.29v-3.52l-7.7-7.7c-3.32-3.32-8.71-3.32-12.03,0-.09.09-.18.19-.27.28C18.39,1,16.11,0,13.72,0ZM25.76,20c-.1-.09-.19-.18-.28-.27l-5.48-5.48-5.48,5.48c-.09.09-.19.18-.28.27.1.09.19.18.28.27l5.48,5.48,5.48-5.48c.09-.09.19-.18.28-.27ZM22.22,29.81v1.68c0,2.24,1.82,4.06,4.06,4.06,1.08,0,2.11-.43,2.87-1.19l6.4-6.4v-1.68c0-2.24-1.82-4.06-4.06-4.07-1.08,0-2.11.43-2.88,1.19,0,0-6.4,6.4-6.4,6.4ZM17.78,29.81l-6.4-6.4c-1.59-1.59-4.16-1.59-5.75,0-.76.76-1.19,1.8-1.19,2.88v1.68l6.4,6.4c1.59,1.59,4.16,1.59,5.75,0,.76-.76,1.19-1.8,1.19-2.88,0,0,0-1.68,0-1.68ZM17.78,8.51v1.68l-6.4,6.4c-1.59,1.59-4.16,1.59-5.75,0-.76-.76-1.19-1.8-1.19-2.88v-1.68l6.4-6.4c1.59-1.59,4.16-1.59,5.75,0,.76.76,1.19,1.8,1.19,2.88ZM28.62,16.59l-6.4-6.4v-1.68c0-2.24,1.82-4.06,4.06-4.06,1.08,0,2.11.43,2.87,1.19l6.4,6.4v1.68c0,2.24-1.82,4.06-4.06,4.06-1.08,0-2.11-.43-2.88-1.19Z"/>
</svg>